<?xml version="1.0" encoding="utf-8"?>
<!-- Generator: Adobe Illustrator 16.0.0, SVG Export Plug-In . SVG Version: 6.00 Build 0)  -->
<!DOCTYPE svg PUBLIC "-//W3C//DTD SVG 1.1//EN" "http://www.w3.org/Graphics/SVG/1.1/DTD/svg11.dtd">
<svg version="1.1" id="Layer_1" xmlns="http://www.w3.org/2000/svg" xmlns:xlink="http://www.w3.org/1999/xlink" x="0px" y="0px"
	 width="107.5px" height="79.688px" viewBox="0 0 107.5 79.688" enable-background="new 0 0 107.5 79.688" xml:space="preserve">
<g id="XMLID_241_">
	<path id="XMLID_244_" fill="#FFFFFF" d="M73.225,70.094l0.014,5.175c0.007,2.221,1.809,4.016,4.027,4.016c0.004,0,0.008,0,0.012,0
		c2.225-0.006,4.021-1.813,4.016-4.039l-0.016-5.149h-8.053V70.094z"/>
	<path id="XMLID_1025_" fill="#FFFFFF" d="M63.361,69.063l-0.002,6.192c0,2.226,1.804,4.027,4.027,4.027l0,0
		c2.225,0,4.027-1.803,4.027-4.027v-5.162h-5.127C65.182,70.094,64.164,69.707,63.361,69.063z"/>
	<circle id="XMLID_1026_" fill="#FFFFFF" cx="29.912" cy="7.358" r="6.956"/>
	<path id="XMLID_1027_" fill="#FFFFFF" d="M47.246,28.729L36.708,27.49l-6.892-6.847l6.537,3.427l2.41,0.283v-2.979
		c0-2.595-2.104-4.698-4.699-4.698h-8.379c-2.595,0-4.699,2.104-4.699,4.698l-0.083,53.869c-0.006,2.225,1.792,4.033,4.016,4.039
		c0.004,0,0.008,0,0.012,0c2.219,0,4.021-1.795,4.027-4.016l0.084-29.773c0-0.004,0-0.008,0-0.012h1.737l0.002,29.774
		c0,2.224,1.804,4.025,4.028,4.025s4.027-1.803,4.027-4.027c-0.003-35.821-0.073-37.387-0.073-37.387l-4.38-0.514
		c-1.339-0.158-2.985-0.125-3.949-1.904l-5.349-10.047l7.714,7.666c0.533,0.529,1.229,0.865,1.975,0.951l11.69,1.373
		c1.843,0.215,3.508-1.104,3.725-2.943C50.404,30.611,49.087,28.943,47.246,28.729z"/>
	<circle id="XMLID_1028_" fill="#FFFFFF" cx="72.285" cy="7.358" r="6.956"/>
	<path id="XMLID_1031_" fill="#FFFFFF" d="M84.816,51.945h-3.519c0-2.127,0-2.496,0-4.973c0-0.945-0.767-1.712-1.712-1.712h-0.533
		c0.191-1.192,1.475-9.172,1.678-10.442c0.09-0.555,0.037-1.123-0.148-1.654l-3.975-11.219l0.238,0.354l4.363,6.486v-7.41
		c0-2.595-2.104-4.698-4.699-4.698h-8.379c-2.595,0-4.697,2.104-4.697,4.698v1.194l-10.758,6.148
		c0.693,1.205,1.02,2.638,0.845,4.123c-0.222,1.896-1.215,3.513-2.627,4.576c0.165-0.063,0.326-0.137,0.484-0.227l12.054-6.892
		l-0.07,19.765c1.414-1.133,2.811-1.029,3.533-1.029v-2.063c0-1.812,1.062-3.429,2.654-4.183l1.529-9.522l-0.613-6.986l-0.186-2.096
		L73.968,34.6c-0.178,1.104-1.514,9.424-1.712,10.662H71.52c-0.945,0-1.713,0.766-1.713,1.711c0,2.457,0,2.86,0,4.973h-3.519
		c-0.981,0-1.778,0.797-1.778,1.779v11.68c0,0.982,0.797,1.779,1.778,1.779h18.528c0.982,0,1.779-0.797,1.779-1.779v-11.68
		C86.596,52.742,85.8,51.945,84.816,51.945z M74.943,49.688c0.181,0.028,0.358,0.043,0.537,0.043c0.754,0,1.463-0.256,2.037-0.697
		h0.356v2.912H73.23v-2.912h0.197C73.855,49.365,74.372,49.596,74.943,49.688z"/>
</g>
</svg>
