<?xml version="1.0" encoding="utf-8"?>
<!-- Generator: Adobe Illustrator 16.0.0, SVG Export Plug-In . SVG Version: 6.00 Build 0)  -->
<!DOCTYPE svg PUBLIC "-//W3C//DTD SVG 1.1//EN" "http://www.w3.org/Graphics/SVG/1.1/DTD/svg11.dtd">
<svg version="1.1" id="Layer_1" xmlns="http://www.w3.org/2000/svg" xmlns:xlink="http://www.w3.org/1999/xlink" x="0px" y="0px"
	 width="107.5px" height="79.688px" viewBox="0 0 107.5 79.688" enable-background="new 0 0 107.5 79.688" xml:space="preserve">
<g>
	<path fill="#FFFFFF" d="M75.6,0.811v13.771l11.599-1.785v13.248h10.03v52.83H10.271v-52.83l0,0V24.87L75.6,0.811z M25.871,22.252
		l46.805-7.215V5L25.871,22.252z M71.637,51.546c0-9.871-8.01-17.889-17.892-17.889c-9.883,0-17.891,8.018-17.891,17.889
		c0,9.89,8.008,17.898,17.891,17.898C63.627,69.444,71.637,61.435,71.637,51.546z M20.467,26.046H84.27v-9.839L20.467,26.046z"/>
	<path fill="#FFFFFF" d="M55.188,50.399c-2.189-0.904-2.824-1.467-2.824-2.508c0-0.841,0.603-1.82,2.301-1.82
		c1.528,0,2.487,0.549,2.899,0.781l0.242,0.141l0.771-2.031L58.2,44.858c-0.872-0.509-2.2-0.793-3.2-0.861V44h-2v0.122
		c-1,0.438-3.396,2.01-3.396,4.058c0,2.424,2.083,3.532,4.212,4.366c1.816,0.736,2.612,1.498,2.612,2.629
		c0,1.24-1.044,2.107-2.582,2.107c-1.165,0-2.36-0.361-3.303-0.99l-0.248-0.17l-0.736,2.064l0.012,0.104
		c0.85,0.607,2.429,1.023,3.429,1.09V62h2v-2.722c2-0.519,3.917-2.5,3.917-4.273C58.917,52.882,57.893,51.503,55.188,50.399z"/>
</g>
</svg>
