<?xml version="1.0" encoding="utf-8"?>
<!-- Generator: Adobe Illustrator 16.0.0, SVG Export Plug-In . SVG Version: 6.00 Build 0)  -->
<!DOCTYPE svg PUBLIC "-//W3C//DTD SVG 1.1//EN" "http://www.w3.org/Graphics/SVG/1.1/DTD/svg11.dtd">
<svg version="1.1" id="Layer_1" xmlns="http://www.w3.org/2000/svg" xmlns:xlink="http://www.w3.org/1999/xlink" x="0px" y="0px"
	 width="107.5px" height="79.688px" viewBox="0 0 107.5 79.688" enable-background="new 0 0 107.5 79.688" xml:space="preserve">
<g>
	<g>
		<path fill="#FFFFFF" d="M71.148,21.242h7.523L67.52,2.107c-0.897-1.551-2.89-2.08-4.438-1.164c-1.552,0.898-2.08,2.89-1.164,4.439
			L71.148,21.242z"/>
		<path fill="#FFFFFF" d="M45.618,5.384c0.899-1.551,0.388-3.542-1.162-4.439c-1.552-0.898-3.542-0.387-4.44,1.164l-11.154,19.15
			h7.523L45.618,5.384z"/>
		<path fill="#FFFFFF" d="M91.129,27.109H16.353c-3.048,0-5.515,2.467-5.515,5.515v6.114c0,3.048,2.466,5.515,5.515,5.515h1.727
			l5.32,28.844c0.669,3.399,3.77,6.097,6.995,6.097h2.114h13.884c1.409,0,3.242,0,5.11,0l0,0h1.691h1.691l0,0
			c1.867,0,3.699,0,5.109,0H73.88h2.114c3.225,0,6.324-2.696,6.996-6.097l5.355-28.86h2.801c3.049,0,5.516-2.467,5.516-5.515v-6.114
			C96.645,29.576,94.178,27.109,91.129,27.109z M41.284,55.935v12.438c0,1.78-1.445,3.118-3.119,3.118
			c-1.78,0-3.119-1.444-3.119-3.118v-5.216V50.931c0-1.78,1.444-3.118,3.119-3.118c1.779,0,3.119,1.443,3.119,3.118V55.935z
			 M51.292,55.935v12.438c0,1.78-1.444,3.118-3.118,3.118c-1.78,0-3.119-1.444-3.119-3.118v-5.216V50.931
			c0-1.78,1.445-3.118,3.119-3.118c1.674,0,3.118,1.443,3.118,3.118V55.935z M61.354,63.158v5.216c0,1.674-1.34,3.118-3.119,3.118
			c-1.674,0-3.118-1.338-3.118-3.118V55.935v-5.004c0-1.675,1.444-3.118,3.118-3.118c1.675,0,3.119,1.338,3.119,3.118V63.158z
			 M71.359,63.158v5.216c0,1.674-1.338,3.118-3.117,3.118c-1.674,0-3.119-1.338-3.119-3.118V55.935v-5.004
			c0-1.675,1.34-3.118,3.119-3.118c1.674,0,3.117,1.338,3.117,3.118V63.158z"/>
	</g>
</g>
</svg>
