<?xml version="1.0" encoding="utf-8"?>
<!-- Generator: Adobe Illustrator 16.0.0, SVG Export Plug-In . SVG Version: 6.00 Build 0)  -->
<!DOCTYPE svg PUBLIC "-//W3C//DTD SVG 1.1//EN" "http://www.w3.org/Graphics/SVG/1.1/DTD/svg11.dtd">
<svg version="1.1" id="Layer_1" xmlns="http://www.w3.org/2000/svg" xmlns:xlink="http://www.w3.org/1999/xlink" x="0px" y="0px"
	 width="107.5px" height="79.688px" viewBox="0 0 107.5 79.688" enable-background="new 0 0 107.5 79.688" xml:space="preserve">
<g>
	<path fill="#FFFFFF" d="M88.396,0.093H24.6v10.601h-7.755c-1.457,0-2.845,1.038-2.845,2.495v5.3c0,1.457,1.388,2.805,2.845,2.805
		H24.6v5.3h-7.755c-1.457,0-2.845,1.037-2.845,2.494v5.302c0,1.457,1.388,2.805,2.845,2.805H24.6v5.3h-7.755
		C15.388,42.494,14,43.531,14,44.988v5.3c0,1.458,1.388,2.806,2.845,2.806H24.6v5.301h-7.755c-1.457,0-2.845,1.037-2.845,2.495v5.3
		c0,1.458,1.388,2.806,2.845,2.806H24.6v10.601h63.796c2.927,0,5.104-2.528,5.104-5.455V5.24C93.5,2.311,91.322,0.093,88.396,0.093z
		 M40.5,74.293H29.9v-5.299h2.845c1.458,0,2.455-1.348,2.455-2.806v-5.3c0-1.458-0.997-2.495-2.455-2.495H29.9v-5.301h2.845
		c1.458,0,2.455-1.348,2.455-2.806v-5.3c0-1.457-0.997-2.494-2.455-2.494H29.9v-5.301h2.845c1.458,0,2.455-1.349,2.455-2.805v-5.302
		c0-1.457-0.997-2.494-2.455-2.494H29.9v-5.3h2.845c1.458,0,2.455-1.348,2.455-2.806v-5.3c0-1.457-0.997-2.495-2.455-2.495H29.9
		v-5.3h10.6V74.293z"/>
</g>
</svg>
