<?xml version="1.0" encoding="utf-8"?>
<!-- Generator: Adobe Illustrator 16.0.0, SVG Export Plug-In . SVG Version: 6.00 Build 0)  -->
<!DOCTYPE svg PUBLIC "-//W3C//DTD SVG 1.1//EN" "http://www.w3.org/Graphics/SVG/1.1/DTD/svg11.dtd">
<svg version="1.1" id="Layer_1" xmlns="http://www.w3.org/2000/svg" xmlns:xlink="http://www.w3.org/1999/xlink" x="0px" y="0px"
	 width="107.5px" height="79.688px" viewBox="0 0 107.5 79.688" enable-background="new 0 0 107.5 79.688" xml:space="preserve">
<g>
	<path fill="#FFFFFF" d="M96.541,12.335H72.088V6.222c0-3.362-2.75-6.113-6.111-6.113H41.524c-3.362,0-6.113,2.751-6.113,6.113
		v6.112H10.959c-3.362,0-6.113,2.751-6.113,6.113v55.017c0,3.361,2.75,6.112,6.113,6.112h85.582c3.361,0,6.111-2.751,6.111-6.112
		V18.448C102.652,15.086,99.902,12.335,96.541,12.335z M41.524,6.233c0.003-0.004,0.007-0.008,0.011-0.011h24.43
		c0.004,0.003,0.008,0.007,0.012,0.011v6.102H41.524V6.233z M96.541,36.787H84.314v9.17c0,1.682-1.375,3.057-3.058,3.057h-6.112
		c-1.683,0-3.058-1.375-3.058-3.057v-9.17H35.412v9.17c0,1.682-1.375,3.057-3.056,3.057h-6.114c-1.681,0-3.056-1.375-3.056-3.057
		v-9.17H10.959v-6.113h85.582V36.787z"/>
</g>
</svg>
