<?xml version="1.0" encoding="utf-8"?>
<!-- Generator: Adobe Illustrator 16.0.0, SVG Export Plug-In . SVG Version: 6.00 Build 0)  -->
<!DOCTYPE svg PUBLIC "-//W3C//DTD SVG 1.1//EN" "http://www.w3.org/Graphics/SVG/1.1/DTD/svg11.dtd">
<svg version="1.1" id="Layer_1" xmlns="http://www.w3.org/2000/svg" xmlns:xlink="http://www.w3.org/1999/xlink" x="0px" y="0px"
	 width="107.5px" height="79.688px" viewBox="0 0 107.5 79.688" enable-background="new 0 0 107.5 79.688" xml:space="preserve">
<g>
	<g>
		<g>
			<path fill="#FFFFFF" d="M66.047,18.124c-0.33-0.471-0.73-0.707-1.201-0.707s-0.871,0.236-1.201,0.707
				c-0.328,0.472-0.494,1.036-0.494,1.694c0,0.66,0.166,1.225,0.494,1.695c0.33,0.472,0.73,0.705,1.201,0.705
				s0.871-0.233,1.201-0.705c0.328-0.472,0.494-1.036,0.494-1.695C66.541,19.16,66.375,18.595,66.047,18.124z"/>
		</g>
	</g>
	<g>
		<g>
			<path fill="#FFFFFF" d="M89.471,47.568c-8.922,4.44-20.434,7.039-32.688,7.406v24.25c12.256-0.369,23.768-2.966,32.688-7.406
				c10.324-5.144,16.012-12.183,16.012-19.826v-24.25C105.482,35.387,99.795,42.428,89.471,47.568z"/>
		</g>
	</g>
	<g>
		<g>
			<rect x="2.018" y="30.773" fill="#FFFFFF" width="48.701" height="24.25"/>
		</g>
	</g>
	<g>
		<g>
			<path fill="#FFFFFF" d="M81.199,32.744c-0.33-0.469-0.73-0.705-1.201-0.705c-0.473,0-0.871,0.236-1.201,0.705
				c-0.33,0.473-0.494,1.037-0.494,1.695c0,0.66,0.164,1.227,0.494,1.694c0.33,0.474,0.729,0.707,1.201,0.707
				c0.471,0,0.871-0.233,1.201-0.707c0.328-0.469,0.494-1.034,0.494-1.694C81.693,33.781,81.527,33.217,81.199,32.744z"/>
		</g>
	</g>
	<g>
		<g>
			<path fill="#FFFFFF" d="M89.471,7.915c-9.654-4.806-22.34-7.453-35.721-7.453c-13.382,0-26.067,2.647-35.721,7.453
				C9.085,12.369,3.625,18.249,2.323,24.711h54.458V48.91c11.322-0.359,21.875-2.729,29.986-6.768
				c8.041-4.004,12.651-9.254,12.651-14.4h6.063C105.482,20.098,99.795,13.057,89.471,7.915z M59.035,22.009
				c-0.317-0.683-0.477-1.412-0.477-2.189c0-0.776,0.158-1.506,0.477-2.189c0.318-0.683,0.76-1.271,1.324-1.766
				c0.565-0.495,1.23-0.889,1.996-1.184s1.596-0.441,2.49-0.441c0.87,0,1.688,0.146,2.454,0.441
				c0.767,0.295,1.431,0.688,1.994,1.184c0.565,0.494,1.015,1.083,1.343,1.766c0.329,0.685,0.495,1.413,0.495,2.189
				c0,0.777-0.166,1.508-0.495,2.189c-0.328,0.685-0.775,1.271-1.343,1.766c-0.563,0.494-1.229,0.889-1.994,1.184
				s-1.584,0.441-2.454,0.441c-0.896,0-1.726-0.146-2.49-0.441c-0.766-0.293-1.431-0.688-1.996-1.184
				C59.795,23.279,59.354,22.692,59.035,22.009z M61.525,37.371l18.861-23.168l2.93,2.648L64.457,40.02L61.525,37.371z
				 M85.789,36.631c-0.33,0.683-0.775,1.271-1.342,1.767c-0.564,0.494-1.23,0.889-1.994,1.184c-0.766,0.293-1.584,0.439-2.455,0.439
				c-0.896,0-1.727-0.146-2.49-0.439c-0.766-0.295-1.43-0.688-1.996-1.184c-0.563-0.496-1.006-1.084-1.324-1.767
				c-0.317-0.684-0.477-1.414-0.477-2.19c0-0.777,0.158-1.506,0.477-2.189c0.318-0.682,0.761-1.271,1.324-1.766
				c0.566-0.494,1.23-0.889,1.996-1.185c0.766-0.293,1.594-0.44,2.49-0.44c0.871,0,1.689,0.147,2.455,0.44
				c0.764,0.296,1.43,0.689,1.994,1.185c0.566,0.494,1.012,1.084,1.342,1.766c0.33,0.685,0.496,1.414,0.496,2.189
				C86.285,35.217,86.119,35.947,85.789,36.631z"/>
		</g>
	</g>
</g>
</svg>
