<?xml version="1.0" encoding="utf-8"?>
<!-- Generator: Adobe Illustrator 16.0.0, SVG Export Plug-In . SVG Version: 6.00 Build 0)  -->
<!DOCTYPE svg PUBLIC "-//W3C//DTD SVG 1.1//EN" "http://www.w3.org/Graphics/SVG/1.1/DTD/svg11.dtd">
<svg version="1.1" id="Layer_1" xmlns="http://www.w3.org/2000/svg" xmlns:xlink="http://www.w3.org/1999/xlink" x="0px" y="0px"
	 width="107.5px" height="79.688px" viewBox="0 0 107.5 79.688" enable-background="new 0 0 107.5 79.688" xml:space="preserve">
<g>
	<path fill="#FFFFFF" d="M58.999,69.512c-0.606,0.438-3.033,0.176-4.229,0.176c-3.128,0-5.486,0-8.63,0
		c-1.252,0-3.514,0.211-4.049-0.267c-0.601-0.524-0.611-2.606,0.354-2.998c0.779-0.307,3.193-0.084,4.314-0.084
		c3.061,0,4.873,0,8.275,0c1.131,0,3.471-0.164,3.963,0.173C59.563,66.91,59.654,69.045,58.999,69.512z M58.999,61.682
		c-0.492-0.341-2.834-0.175-3.963-0.175c-3.404,0-5.217,0-8.275,0c-1.12,0-3.535-0.225-4.314,0.089
		c-0.961,0.385-0.951,2.469-0.354,2.993c0.528,0.464,2.813,0.267,4.049,0.267c3.173,0,5.572,0,8.807,0
		c1.246,0,3.594,0.233,4.139-0.267C59.677,64.047,59.518,62.037,58.999,61.682z M62.609,49.967c0.773-3.243,1.949-6.362,3.082-8.979
		c1.853-4.275,4.345-7.707,5.726-12.248L61.374,40.533l-4.289-13.475L45.027,51.174l-7.973-21.553l-4.594,5.396
		c2.268,4.51,4.544,9.006,5.937,14.424c0.674,2.631,0.935,7.66,2.555,9.244c1.463,1.438,6.06,0.971,9.333,0.971
		c1.618,0,3.026,0,4.667,0c1.633,0,3.243,0.09,4.317-0.355C61.839,58.242,61.846,53.168,62.609,49.967z M29.772,34.904l8.012-9.408
		l7.534,20.357l12.204-24.404l4.713,14.809l17.56-20.623l2.558,2.556v-7.762h-7.761l2.498,2.496L63.784,28.541l-5.478-17.209
		L45.77,36.408l-7.03-18.275L25.149,34.898h4.623V34.904L29.772,34.904z M49.843,79.465c0.5,0,0.996,0,1.498,0
		c2.135-0.42,3.525-1.577,4.404-3.254c-3.404,0-6.811,0-10.215,0C46.097,77.813,47.802,79.039,49.843,79.465z M46.021,31.17
		L58.743,5.727l5.896,18.546l6.84-8.028c-1.08-3.832-2.961-6.979-5.348-9.419c-3.35-3.421-7.922-6.004-14.002-6.604
		c-1.029,0-2.054,0-3.082,0c-5.89,0.547-10.436,3.037-13.914,6.516c-3.221,3.221-5.909,8.39-6.337,14.087c0,1.03,0,2.056,0,3.083
		c0.075,0.935,0.213,1.816,0.385,2.662l10.221-12.604L46.021,31.17z M58.999,74.357c0.61-0.435,0.582-2.469,0.088-2.91
		c-0.44-0.393-2.616-0.264-3.875-0.264c-3.664,0-5.202,0-8.366,0c-1.214,0-3.448-0.209-4.314,0.084
		c-0.953,0.325-1.106,2.403-0.44,2.998c0.536,0.477,2.8,0.266,4.049,0.266c3.173,0,5.5,0,8.63,0
		C55.966,74.537,58.393,74.795,58.999,74.357z"/>
</g>
</svg>
