<?xml version="1.0" encoding="utf-8"?>
<!-- Generator: Adobe Illustrator 16.0.0, SVG Export Plug-In . SVG Version: 6.00 Build 0)  -->
<!DOCTYPE svg PUBLIC "-//W3C//DTD SVG 1.1//EN" "http://www.w3.org/Graphics/SVG/1.1/DTD/svg11.dtd">
<svg version="1.1" id="Layer_1" xmlns="http://www.w3.org/2000/svg" xmlns:xlink="http://www.w3.org/1999/xlink" x="0px" y="0px"
	 width="50px" height="50px" viewBox="0 0 50 50" enable-background="new 0 0 50 50" xml:space="preserve">
<g>
	<g>
		<g>
			<rect x="26.643" y="21.164" fill="#FFFFFF" width="16.916" height="1.78"/>
		</g>
	</g>
	<g>
		<g>
			<rect x="26.643" y="39.857" fill="#FFFFFF" width="11.574" height="4.156"/>
		</g>
	</g>
	<g>
		<g>
			<rect x="10.62" y="30.957" fill="#FFFFFF" width="14.243" height="3.563"/>
		</g>
	</g>
	<g>
		<g>
			<polygon fill="#FFFFFF" points="21.303,36.297 21.303,38.078 18.563,38.078 18.563,39.857 21.303,39.857 24.863,39.857 
				24.863,36.297 			"/>
		</g>
	</g>
	<g>
		<g>
			<polygon fill="#FFFFFF" points="26.645,24.726 26.645,38.078 38.217,38.078 38.217,26.506 43.559,26.506 43.559,24.726 			"/>
		</g>
	</g>
	<g>
		<g>
			<rect x="39.996" y="41.641" fill="#FFFFFF" width="9.794" height="2.373"/>
		</g>
	</g>
	<g>
		<g>
			<rect x="39.996" y="28.285" fill="#FFFFFF" width="9.794" height="1.779"/>
		</g>
	</g>
	<g>
		<g>
			<rect x="39.996" y="31.848" fill="#FFFFFF" width="9.794" height="8.012"/>
		</g>
	</g>
	<path fill="#FFFFFF" d="M15.17,11c-0.064,0-0.292,0.705-0.598,0.755l-0.498,0.179c-0.006,0.132-0.019,0.311-0.038,0.438
		l0.478,0.198c0.384,0.143,0.582,0.583,0.44,0.968c-0.142,0.386-0.57,0.587-0.956,0.447l-0.478-0.174
		c-0.069,0.11-0.145,0.22-0.226,0.321l0.327,0.393c0.26,0.315,0.219,0.785-0.096,1.045c-0.315,0.263-0.785,0.22-1.045-0.095
		l-0.326-0.389c-0.114,0.062-0.233,0.116-0.357,0.165l0.087,0.5c0.069,0.405-0.201,0.791-0.605,0.86
		c-0.404,0.068-0.992-0.203-1.062-0.607L10,15.926V28h14v-9h17v-8H15.17z M15.257,26.077c-0.644-0.651-1.292-1.303-1.93-1.946
		c0.635-0.638,1.284-1.291,1.927-1.938c0.107,0.106,0.221,0.222,0.334,0.338c-0.521,0.521-1.053,1.053-1.587,1.586
		c0.544,0.543,1.076,1.076,1.609,1.607C15.482,25.852,15.37,25.963,15.257,26.077z M16.271,27.095
		c-0.148-0.083-0.29-0.159-0.437-0.241c1.038-1.896,2.073-3.79,3.112-5.688c0.146,0.079,0.288,0.156,0.438,0.24
		C18.345,23.306,17.309,25.196,16.271,27.095z M19.868,26.073c-0.114-0.114-0.229-0.229-0.343-0.341
		c0.526-0.528,1.057-1.06,1.585-1.585c-0.54-0.541-1.073-1.073-1.597-1.598c0.129-0.128,0.244-0.244,0.355-0.355
		c0.635,0.64,1.283,1.295,1.924,1.94C21.159,24.772,20.51,25.426,19.868,26.073z"/>
	<path fill="#FFFFFF" d="M8.115,11.45l0.302,0.113c-0.013,0.082-0.02,0.164-0.023,0.248l-0.317,0.055
		c-0.255,0.044-0.427,0.287-0.383,0.542l0,0l0,0c0.044,0.257,0.288,0.429,0.544,0.385l0.316-0.055
		c0.03,0.078,0.065,0.153,0.104,0.226L8.411,13.17c-0.199,0.167-0.227,0.463-0.061,0.663s0.463,0.227,0.663,0.061l0.247-0.207
		c0.064,0.051,0.133,0.1,0.203,0.144l-0.111,0.303c-0.09,0.244,0.035,0.515,0.279,0.604c0.244,0.091,0.514-0.034,0.604-0.278
		l0.111-0.303c0.081,0.012,0.163,0.021,0.248,0.023l0.055,0.317c0.044,0.256,0.287,0.428,0.543,0.384
		c0.256-0.044,0.428-0.288,0.383-0.544l-0.055-0.316c0.079-0.031,0.154-0.066,0.227-0.104l0.206,0.247
		c0.165,0.2,0.463,0.227,0.662,0.061c0.199-0.165,0.226-0.462,0.061-0.662l-0.207-0.249c0.052-0.064,0.099-0.133,0.143-0.203
		l0.303,0.112c0.244,0.089,0.516-0.035,0.605-0.28c0.09-0.244-0.036-0.514-0.278-0.605l-0.303-0.111
		c0.012-0.081,0.02-0.164,0.023-0.248l0.315-0.055c0.257-0.044,0.429-0.287,0.385-0.544l0,0l0,0
		c-0.045-0.257-0.288-0.428-0.544-0.384l-0.317,0.054c-0.029-0.078-0.065-0.152-0.104-0.226l0.246-0.206
		c0.2-0.167,0.228-0.464,0.061-0.664c-0.166-0.2-0.464-0.227-0.663-0.061l-0.248,0.206c-0.064-0.05-0.132-0.099-0.202-0.143
		l0.112-0.303c0.09-0.244-0.035-0.515-0.279-0.604c-0.243-0.09-0.515,0.035-0.604,0.279l-0.11,0.303
		c-0.082-0.012-0.165-0.021-0.248-0.023l-0.055-0.317c-0.044-0.257-0.288-0.428-0.544-0.384C9.906,8.952,9.734,9.195,9.779,9.451
		l0.054,0.317c-0.076,0.03-0.151,0.066-0.226,0.104L9.402,9.625c-0.167-0.2-0.463-0.227-0.663-0.061
		C8.54,9.73,8.513,10.027,8.68,10.227l0.205,0.249c-0.051,0.065-0.099,0.133-0.143,0.203l-0.303-0.111
		c-0.244-0.091-0.514,0.034-0.604,0.279C7.746,11.09,7.871,11.361,8.115,11.45z M9.353,12.123c-0.126-0.731,0.365-1.43,1.097-1.554
		c0.73-0.126,1.427,0.366,1.554,1.098l0,0l0,0c0.126,0.732-0.367,1.429-1.097,1.555C10.176,13.347,9.479,12.854,9.353,12.123
		L9.353,12.123L9.353,12.123z"/>
	<path fill="#FFFFFF" d="M0.21,9.739L0.21,9.739L0.21,9.739c0,0.259,0.21,0.47,0.471,0.47h0.521
		c0.029,0.173,0.074,0.342,0.135,0.501l-0.453,0.262c-0.225,0.129-0.302,0.418-0.171,0.642c0.129,0.226,0.417,0.303,0.643,0.172
		l0.451-0.261c0.111,0.133,0.234,0.256,0.368,0.367l-0.263,0.454c-0.13,0.226-0.053,0.513,0.173,0.643
		c0.225,0.13,0.513,0.052,0.643-0.172l0.261-0.453c0.16,0.06,0.328,0.104,0.501,0.135v0.523c0,0.26,0.211,0.471,0.47,0.471
		c0.26,0,0.471-0.211,0.471-0.471v-0.523c0.173-0.03,0.341-0.075,0.501-0.135l0.261,0.453c0.13,0.225,0.417,0.303,0.642,0.172
		c0.226-0.13,0.303-0.417,0.174-0.643l-0.263-0.454c0.131-0.11,0.254-0.233,0.365-0.366l0.452,0.261
		c0.226,0.131,0.513,0.053,0.643-0.172c0.13-0.224,0.053-0.513-0.171-0.642L6.582,10.71c0.06-0.16,0.104-0.328,0.134-0.501h0.522
		c0.26,0,0.47-0.211,0.47-0.47l0,0l0,0c0-0.26-0.21-0.471-0.47-0.471H6.716C6.687,9.095,6.642,8.927,6.582,8.766l0.453-0.261
		c0.224-0.13,0.301-0.417,0.171-0.643C7.076,7.637,6.789,7.561,6.563,7.69L6.111,7.952C6,7.818,5.877,7.695,5.744,7.584L6.007,7.13
		c0.129-0.225,0.052-0.514-0.174-0.643C5.608,6.358,5.321,6.436,5.191,6.661l-0.26,0.451C4.771,7.054,4.603,7.008,4.43,6.979V6.456
		c0-0.259-0.211-0.47-0.471-0.47c-0.259,0-0.47,0.211-0.47,0.47V6.98C3.316,7.008,3.148,7.054,2.988,7.112l-0.26-0.451
		C2.598,6.436,2.31,6.358,2.085,6.488C1.859,6.617,1.782,6.906,1.912,7.131l0.263,0.454c-0.134,0.11-0.257,0.233-0.368,0.367
		L1.355,7.69C1.13,7.561,0.842,7.637,0.713,7.861C0.582,8.087,0.659,8.374,0.884,8.504l0.453,0.261
		c-0.061,0.162-0.106,0.33-0.135,0.503H0.681C0.42,9.268,0.21,9.479,0.21,9.739z M2.103,9.739c0-1.025,0.833-1.86,1.856-1.86
		s1.856,0.834,1.856,1.86l0,0l0,0c0,1.025-0.833,1.858-1.856,1.858S2.103,10.764,2.103,9.739L2.103,9.739L2.103,9.739z"/>
</g>
</svg>
