<?xml version="1.0" encoding="utf-8"?>
<!-- Generator: Adobe Illustrator 16.0.0, SVG Export Plug-In . SVG Version: 6.00 Build 0)  -->
<!DOCTYPE svg PUBLIC "-//W3C//DTD SVG 1.1//EN" "http://www.w3.org/Graphics/SVG/1.1/DTD/svg11.dtd">
<svg version="1.1" id="Layer_1" xmlns="http://www.w3.org/2000/svg" xmlns:xlink="http://www.w3.org/1999/xlink" x="0px" y="0px"
	 width="50px" height="50px" viewBox="0 0 50 50" enable-background="new 0 0 50 50" xml:space="preserve">
<g>
	<path fill="#FFFFFF" d="M10.642,33.988v3.88h17.831V36.9h-4.214c-0.317,0-0.574-0.258-0.574-0.573v-2.339H10.642z M18.32,36.514
		h-5.953c-0.316,0-0.574-0.258-0.574-0.576c0-0.315,0.257-0.572,0.574-0.572h5.953c0.317,0,0.574,0.257,0.574,0.572
		C18.894,36.256,18.637,36.514,18.32,36.514z"/>
	<path fill="#FFFFFF" d="M24.833,35.752h25.099v-7.518H24.833V35.752z M27.438,29.766h19.89c0.317,0,0.573,0.258,0.573,0.573
		c0,0.316-0.256,0.574-0.573,0.574h-19.89c-0.316,0-0.574-0.258-0.574-0.574C26.863,30.023,27.12,29.766,27.438,29.766z
		 M27.438,32.699h10.025c0.316,0,0.573,0.257,0.573,0.574c0,0.316-0.257,0.574-0.573,0.574H27.438c-0.316,0-0.574-0.258-0.574-0.574
		C26.863,32.956,27.12,32.699,27.438,32.699z"/>
	<path fill="#FFFFFF" d="M12.367,12.378h11.318v-1.351H10.642v7.118h13.042v-4.619H12.367c-0.316,0-0.574-0.257-0.574-0.574
		C11.793,12.635,12.05,12.378,12.367,12.378z M12.367,14.5h7.25c0.317,0,0.574,0.257,0.574,0.574c0,0.317-0.257,0.574-0.574,0.574
		h-7.25c-0.316,0-0.574-0.257-0.574-0.574C11.793,14.757,12.05,14.5,12.367,14.5z"/>
	<path fill="#FFFFFF" d="M28.473,24.971h-4.214c-0.317,0-0.574-0.257-0.574-0.574V23.9H12.367c-0.316,0-0.574-0.257-0.574-0.574
		c0-0.317,0.257-0.574,0.574-0.574h11.318v-1.455H10.642v9.485h13.042v-3.121c0-0.317,0.257-0.573,0.574-0.573h4.215V24.971
		L28.473,24.971z M12.367,24.873h7.25c0.317,0,0.574,0.257,0.574,0.574c0,0.316-0.257,0.574-0.574,0.574h-7.25
		c-0.316,0-0.574-0.258-0.574-0.574C11.793,25.13,12.05,24.873,12.367,24.873z M22.681,28.143H12.367
		c-0.316,0-0.574-0.257-0.574-0.572c0-0.316,0.257-0.573,0.574-0.573h10.314c0.317,0,0.574,0.257,0.574,0.573
		C23.255,27.886,22.999,28.143,22.681,28.143z"/>
	<path fill="#FFFFFF" d="M31.15,4.562c0-0.686-0.559-1.243-1.243-1.243H9.208c-0.686,0-1.243,0.557-1.243,1.243v3.032H31.15V4.562z
		 M21.621,5.747h-4.126c-0.317,0-0.574-0.257-0.574-0.574c0-0.317,0.257-0.574,0.574-0.574h4.126c0.317,0,0.574,0.257,0.574,0.574
		C22.194,5.49,21.938,5.747,21.621,5.747z"/>
	<circle fill="#FFFFFF" cx="19.558" cy="44.084" r="0.723"/>
	<path fill="#FFFFFF" d="M7.965,45.438c0,0.686,0.558,1.242,1.243,1.242h20.699c0.686,0,1.243-0.558,1.243-1.242v-3.976H7.965
		V45.438z M19.558,42.214c1.032,0,1.871,0.838,1.871,1.869c0,1.032-0.839,1.871-1.871,1.871c-1.031,0-1.871-0.839-1.871-1.871
		C17.687,43.052,18.526,42.214,19.558,42.214z"/>
	<path fill="#FFFFFF" d="M24.833,23.824h25.099V10.268H24.833V23.824z M27.438,12.718h19.89c0.317,0,0.573,0.257,0.573,0.574
		s-0.256,0.574-0.573,0.574h-19.89c-0.316,0-0.574-0.257-0.574-0.574S27.12,12.718,27.438,12.718z M27.438,15.653h10.025
		c0.316,0,0.573,0.257,0.573,0.574S37.779,16.8,37.463,16.8H27.438c-0.316,0-0.574-0.257-0.574-0.574S27.12,15.653,27.438,15.653z
		 M27.438,18.587h14.265c0.317,0,0.573,0.257,0.573,0.574c0,0.317-0.256,0.574-0.573,0.574H27.438c-0.316,0-0.574-0.257-0.574-0.574
		C26.863,18.844,27.12,18.587,27.438,18.587z"/>
	<rect x="29.62" y="24.971" fill="#FFFFFF" width="1.53" height="2.117"/>
	<path fill="#FFFFFF" d="M8.35,32.715L2.885,22.419c-0.085-0.159-0.28-0.218-0.438-0.136c-0.158,0.086-0.218,0.28-0.135,0.439
		l5.465,10.295c0.084,0.158,0.279,0.219,0.438,0.137C8.374,33.068,8.433,32.872,8.35,32.715z"/>
	<polygon fill="#FFFFFF" points="9.545,35.66 9.495,33.542 9.495,35.623 	"/>
	<path fill="#FFFFFF" d="M7.965,40.314H31.15V36.9h-1.53v1.541c0,0.315-0.257,0.572-0.573,0.572H10.068
		c-0.317,0-0.574-0.257-0.574-0.572v-2.024l-1.53-1.091L7.965,40.314L7.965,40.314z"/>
	<path fill="#FFFFFF" d="M10.068,9.88h13.616V9.693c0-0.317,0.257-0.574,0.574-0.574h6.893V8.742H7.965v20.486l1.936,3.647
		c0.054-0.017,0.108-0.034,0.167-0.034h13.616V31.93H10.068c-0.317,0-0.574-0.257-0.574-0.572V20.723
		c0-0.317,0.257-0.574,0.574-0.574h13.616v-0.855H10.068c-0.317,0-0.574-0.257-0.574-0.574v-8.266
		C9.495,10.137,9.751,9.88,10.068,9.88z"/>
	<path fill="#FFFFFF" d="M10.138,33.396c-0.001-0.052-0.014-0.1-0.038-0.145l-0.2-0.376l-1.936-3.647l-4.848-9.132
		c-0.419-0.789-1.4-1.089-2.189-0.67c-0.788,0.418-1.088,1.4-0.67,2.188l0.303,0.571c0.083,0.159,0.279,0.219,0.438,0.135
		l1.144-0.608c0.158-0.083,0.218-0.279,0.135-0.438c-0.083-0.157-0.279-0.218-0.438-0.134l-0.858,0.455L0.83,21.311
		c-0.251-0.474-0.071-1.062,0.402-1.314c0.474-0.251,1.063-0.071,1.314,0.402l5.419,10.208l1.528,2.881l0.002,0.054l0.051,2.118
		l-0.051-0.037l-1.354-0.966l0.682-0.36c0.157-0.083,0.218-0.279,0.134-0.438c-0.084-0.157-0.28-0.217-0.439-0.135L7.965,34.02
		l-0.303,0.16L1.74,23.026c-0.083-0.157-0.28-0.217-0.438-0.134c-0.158,0.083-0.218,0.28-0.134,0.438L7.24,34.77l0.003,0.006
		c0.024,0.045,0.06,0.084,0.102,0.108l0.62,0.442l1.53,1.091l0.203,0.146c0.2,0.144,0.518-0.024,0.512-0.271L10.138,33.396z"/>
</g>
</svg>
