<?xml version="1.0" encoding="utf-8"?>
<!-- Generator: Adobe Illustrator 16.0.0, SVG Export Plug-In . SVG Version: 6.00 Build 0)  -->
<!DOCTYPE svg PUBLIC "-//W3C//DTD SVG 1.1//EN" "http://www.w3.org/Graphics/SVG/1.1/DTD/svg11.dtd">
<svg version="1.1" id="Layer_1" xmlns="http://www.w3.org/2000/svg" xmlns:xlink="http://www.w3.org/1999/xlink" x="0px" y="0px"
	 width="50px" height="50px" viewBox="0 0 50 50" enable-background="new 0 0 50 50" xml:space="preserve">
<path fill="#FFFFFF" d="M23.135,21.854l-0.826,0.385c-0.08,0.037-0.163,0.055-0.25,0.055c-0.205,0-0.393-0.104-0.502-0.277
	l-1.139-1.815l-1.062,1.801c-0.107,0.18-0.303,0.292-0.512,0.292c-0.078,0-0.155-0.015-0.227-0.046l-1.101-0.458l2.875,8.496
	L23.135,21.854z"/>
<rect x="17" y="42" fill="#FFFFFF" width="7" height="2"/>
<path fill="#FFFFFF" d="M15,37h7.954c0.328,0,0.593,0.174,0.593,0.5c0,0.328-0.265,0.5-0.593,0.5H15v3h11v-6h-7.906
	c-0.328,0-0.593-0.172-0.593-0.5c0-0.326,0.266-0.5,0.593-0.5H26v-2H15V37z"/>
<path fill="#FFFFFF" d="M20.328,6.343c-5.619,0-10.189,4.57-10.189,10.188c0,3.543,2.182,6.202,4.315,8.336
	c1.378,1.378,1.458,3.253,1.424,5.13L15.874,30h3.33l-3.232-9.31c-0.074-0.221-0.013-0.344,0.157-0.503
	c0.167-0.156,0.42-0.142,0.633-0.054l1.833,0.792l1.295-2.181c0.105-0.177,0.298-0.281,0.514-0.284c0.203,0,0.391,0.107,0.5,0.282
	l1.379,2.199l1.589-0.738c0.21-0.098,0.47-0.06,0.643,0.094c0.177,0.157,0.244,0.162,0.171,0.386L21.573,30h3.208l-0.004-0.002
	c-0.034-1.877,0.047-3.873,1.424-5.251c0.01-0.009,0.02,0.043,0.027,0.033l-0.783-0.751c-0.814-0.814-0.814-2.118,0-2.932
	c0.406-0.407,0.939-0.603,1.472-0.603c0.534,0,1.066,0.207,1.475,0.614l0.519,0.52c0.946-1.472,1.604-3.151,1.604-5.097
	C30.516,10.913,25.945,6.343,20.328,6.343z"/>
<path fill="#FFFFFF" d="M35.212,12.058c0.127,0,0.249-0.041,0.353-0.116l2.242-1.661c0.127-0.094,0.211-0.232,0.232-0.39
	c0.023-0.156-0.016-0.313-0.109-0.44c-0.113-0.153-0.287-0.24-0.479-0.24c-0.127,0-0.249,0.041-0.352,0.116l-2.242,1.661
	c-0.127,0.095-0.211,0.232-0.232,0.39c-0.023,0.156,0.016,0.313,0.107,0.439C34.848,11.971,35.021,12.058,35.212,12.058z"/>
<path fill="#FFFFFF" d="M35.579,15.089c0.101,0.077,0.223,0.119,0.351,0.121l2.789,0.036c0.158,0.002,0.309-0.058,0.422-0.169
	c0.113-0.11,0.178-0.258,0.18-0.417c0.003-0.19-0.084-0.365-0.235-0.48c-0.101-0.077-0.224-0.118-0.351-0.121l-2.789-0.036
	c-0.158-0.001-0.309,0.058-0.422,0.17c-0.113,0.109-0.178,0.257-0.18,0.415C35.342,14.799,35.427,14.974,35.579,15.089z"/>
<path fill="#FFFFFF" d="M1.579,15.089c0.101,0.077,0.223,0.119,0.35,0.121l2.79,0.036c0.158,0.002,0.309-0.058,0.422-0.169
	c0.113-0.11,0.177-0.258,0.18-0.417c0.002-0.19-0.084-0.365-0.236-0.48c-0.101-0.077-0.223-0.118-0.35-0.121l-2.79-0.036
	c-0.158-0.001-0.308,0.058-0.421,0.17c-0.114,0.109-0.178,0.257-0.18,0.415C1.342,14.799,1.427,14.974,1.579,15.089z"/>
<path fill="#FFFFFF" d="M37.1,20.551c0.104,0.077,0.226,0.117,0.353,0.117c0.19,0,0.364-0.088,0.479-0.241
	c0.094-0.126,0.133-0.283,0.108-0.44c-0.022-0.157-0.106-0.295-0.233-0.39l-2.242-1.66c-0.103-0.077-0.225-0.116-0.352-0.116
	c-0.189,0-0.363,0.087-0.479,0.24c-0.194,0.262-0.139,0.635,0.123,0.829L37.1,20.551z"/>
<path fill="#FFFFFF" d="M3.555,9.327C3.452,9.251,3.331,9.211,3.203,9.211c-0.19,0-0.364,0.088-0.478,0.24
	c-0.094,0.127-0.133,0.284-0.11,0.44c0.023,0.158,0.106,0.296,0.234,0.39l2.242,1.661c0.103,0.075,0.224,0.116,0.352,0.116
	c0.19,0,0.364-0.087,0.477-0.24c0.095-0.127,0.134-0.284,0.11-0.44c-0.023-0.158-0.106-0.295-0.233-0.39L3.555,9.327z"/>
<path fill="#FFFFFF" d="M5.444,17.821c-0.128,0-0.25,0.04-0.352,0.116l-2.242,1.66c-0.127,0.095-0.21,0.233-0.234,0.39
	c-0.023,0.157,0.016,0.313,0.11,0.44c0.113,0.153,0.288,0.241,0.478,0.241c0.128,0,0.249-0.041,0.352-0.117l2.243-1.661
	c0.127-0.094,0.21-0.232,0.233-0.389c0.023-0.157-0.016-0.313-0.11-0.44C5.808,17.908,5.634,17.821,5.444,17.821z"/>
<path fill="#FFFFFF" d="M44.273,36.061c-0.289,0-0.569,0.032-0.842,0.092l-2.599-2.596l7.046-7.047c1.221-1.22,1.221-3.198,0-4.419
	c-0.609-0.609-1.408-0.915-2.209-0.915s-1.6,0.306-2.21,0.915l-7.046,7.046l-6.654-6.656l-0.851-0.852l-0.519-0.518
	c-0.406-0.407-0.939-0.61-1.475-0.61c-0.533,0-1.066,0.203-1.472,0.61c-0.814,0.813-0.814,2.132,0,2.947l0.783,0.782l0.838,0.84
	l6.403,6.402l-6.416,6.477L26,39.672v2.23V44h4.299l7.59-7.544l2.573,2.597c-0.067,0.289-0.104,0.604-0.104,0.913
	c0,4.437,6.541,4.794,8.705,4.794s-0.871-2.621-0.871-4.785C48.189,37.813,46.438,36.061,44.273,36.061z M44.197,22.828
	c0.394-0.395,0.916-0.61,1.474-0.61c0.556,0,1.079,0.216,1.472,0.61c0.813,0.812,0.813,2.133,0,2.945l-0.734,0.736l-2.946-2.946
	L44.197,22.828z M27.791,24.93l-0.839-0.838l-0.771-0.771c-0.406-0.406-0.406-1.067,0-1.473c0.195-0.196,0.459-0.305,0.735-0.305
	s0.541,0.108,0.737,0.305l0.647,0.648l0.843,0.843l6.532,6.534l-1.472,1.475L27.791,24.93z M26.922,43.05v-0.862l0.862,0.862H26.922
	z M29.868,43h-0.61l-2.226-2.238L27,40.714v-0.61l0.032-0.07l15.711-15.731l1.099,1.107L29.57,39.676
	c-0.204,0.203-0.207,0.533-0.002,0.736c0.203,0.203,0.531,0.203,0.733,0l14.267-14.268l1.103,1.075L29.868,43z M38.625,35.766
	l1.475-1.474l2.264,2.265c-0.615,0.346-1.129,0.854-1.482,1.465L38.625,35.766z M48.541,43.717c-1.121-0.029-2.82-0.167-4.311-0.67
	c-0.906-0.305-1.604-0.702-2.074-1.181c-0.51-0.517-0.758-1.134-0.758-1.89c0-0.768,0.299-1.49,0.843-2.033
	c0.543-0.543,1.266-0.842,2.032-0.842c1.586,0,2.875,1.289,2.875,2.875c0,1.187,0.633,2.342,1.141,3.271
	C48.365,43.389,48.457,43.555,48.541,43.717z"/>
</svg>
