<?xml version="1.0" encoding="utf-8"?>
<!-- Generator: Adobe Illustrator 16.0.0, SVG Export Plug-In . SVG Version: 6.00 Build 0)  -->
<!DOCTYPE svg PUBLIC "-//W3C//DTD SVG 1.1//EN" "http://www.w3.org/Graphics/SVG/1.1/DTD/svg11.dtd">
<svg version="1.1" id="Layer_1" xmlns="http://www.w3.org/2000/svg" xmlns:xlink="http://www.w3.org/1999/xlink" x="0px" y="0px"
	 width="50px" height="50px" viewBox="0 0 50 50" enable-background="new 0 0 50 50" xml:space="preserve">
<g>
	<rect x="19.5" y="7" fill="#FFFFFF" width="17" height="2"/>
	<rect x="19.5" y="10" fill="#FFFFFF" width="17" height="3"/>
	<rect x="24.5" y="38" fill="#FFFFFF" width="8" height="5"/>
	<rect x="21.5" y="17" fill="#FFFFFF" width="3" height="6"/>
	<rect x="31.5" y="17" fill="#FFFFFF" width="3" height="6"/>
	<rect x="20.5" y="25" fill="#FFFFFF" width="15" height="1"/>
	<rect x="26.5" y="17" fill="#FFFFFF" width="3" height="6"/>
	<rect x="20.5" y="29" fill="#FFFFFF" width="15" height="1"/>
	<rect x="20.5" y="27" fill="#FFFFFF" width="15" height="1"/>
	<path fill="#FFFFFF" d="M47.393,13H36.5v1v19h-17V14v-1H8.428C7.508,13,6.5,13.434,6.5,14.354v9.617l0.503-0.131L7.5,23.598
		l1-0.485l5.792-2.865l2.292,14.167L6.587,32.87L6.5,35.971C6.5,36.891,7.508,38,8.428,38H23.5v5h-3v1h16v-1h-3v-5h13.893
		c0.92,0,2.107-1.109,2.107-2.029V14.354C49.5,13.434,48.313,13,47.393,13z M32.5,43h-8v-5h8V43z"/>
	<rect x="24.5" y="38" fill="#FFFFFF" width="8" height="5"/>
	<path fill="#FFFFFF" d="M6.406,31.948l9.1,1.456l-1.848-11.799l-9.684,4.446L0.5,27.049l0.649,5.82h0.698l1.148,5.736l2.172-1.129
		l0.506-4.607h0.914L6.406,31.948z M14.064,31.958L6.16,30.693l-0.817-3.709l7.379-3.59L14.064,31.958z M4.116,27.26l0.894,4.17
		l-2.787,0.316l-0.417-3.785L4.116,27.26z M3.859,36.805l-0.762-3.804l1.367-0.132L3.859,36.805z"/>
</g>
</svg>
