<?xml version="1.0" encoding="utf-8"?>
<!-- Generator: Adobe Illustrator 16.0.0, SVG Export Plug-In . SVG Version: 6.00 Build 0)  -->
<!DOCTYPE svg PUBLIC "-//W3C//DTD SVG 1.1//EN" "http://www.w3.org/Graphics/SVG/1.1/DTD/svg11.dtd">
<svg version="1.1" id="Layer_1" xmlns="http://www.w3.org/2000/svg" xmlns:xlink="http://www.w3.org/1999/xlink" x="0px" y="0px"
	 width="1391px" height="255.276px" viewBox="0 0 1391 255.276" enable-background="new 0 0 1391 255.276" xml:space="preserve">
<g>
	<g>
		<path fill="#F2F2F2" d="M269.442,255.276c-1.553,0-3.099-0.01-4.638-0.029l0.102-8c4.883,0.063,9.878,0.023,14.831-0.121
			l0.231,7.996C276.467,255.223,272.926,255.276,269.442,255.276z M249.646,254.727c-5.039-0.281-10.125-0.676-15.118-1.174
			l0.792-7.961c4.879,0.486,9.849,0.871,14.771,1.146L249.646,254.727z M295.111,254.374l-0.557-7.98
			c4.877-0.342,9.85-0.789,14.78-1.33l0.872,7.953C305.173,253.569,300.094,254.026,295.111,254.374z M219.471,251.719
			c-4.999-0.723-10.033-1.564-14.962-2.5l1.494-7.859c4.813,0.914,9.729,1.736,14.612,2.441L219.471,251.719z M325.234,251.071
			l-1.179-7.912c4.831-0.719,9.759-1.547,14.646-2.459l1.469,7.863C335.188,249.493,330.162,250.338,325.234,251.071z
			 M1109.991,249.631c-2.179-0.002-4.382-0.035-6.55-0.104l0.247-7.996c4.862,0.15,9.826,0.127,14.702-0.074l0.332,7.992
			C1115.829,249.571,1112.892,249.631,1109.991,249.631z M1088.186,248.502c-5.037-0.523-10.13-1.236-15.138-2.119l1.389-7.879
			c4.822,0.85,9.727,1.537,14.575,2.041L1088.186,248.502z M1133.955,248.266l-0.906-7.949c4.843-0.553,9.738-1.291,14.552-2.191
			l1.473,7.863C1144.073,246.924,1138.987,247.692,1133.955,248.266z M189.672,246.051c-4.891-1.158-9.831-2.447-14.684-3.828
			l2.191-7.693c4.738,1.348,9.561,2.605,14.336,3.736L189.672,246.051z M355.002,245.512l-1.751-7.807
			c4.772-1.07,9.632-2.248,14.444-3.5l2.016,7.742C364.812,243.223,359.862,244.422,355.002,245.512z M1058.104,243.208
			c-4.88-1.213-9.822-2.621-14.688-4.184l2.447-7.617c4.696,1.508,9.465,2.867,14.171,4.037L1058.104,243.208z M1163.982,242.649
			l-2.02-7.74c4.713-1.23,9.461-2.645,14.11-4.203l2.542,7.586C1173.794,239.907,1168.871,241.374,1163.982,242.649z
			 M384.287,237.893l-2.27-7.672c4.705-1.393,9.479-2.889,14.192-4.445l2.511,7.596
			C393.928,234.956,389.072,236.477,384.287,237.893z M160.491,237.741c-4.769-1.592-9.575-3.316-14.284-5.125l2.869-7.469
			c4.599,1.766,9.291,3.451,13.948,5.006L160.491,237.741z M1029.05,233.889c-4.678-1.844-9.389-3.869-14.001-6.021l3.382-7.25
			c4.466,2.084,9.025,4.045,13.553,5.828L1029.05,233.889z M1192.917,232.967l-3.037-7.402c4.506-1.848,9.03-3.877,13.448-6.029
			l3.504,7.191C1202.262,228.954,1197.579,231.053,1192.917,232.967z M413.002,228.411l-2.738-7.518
			c4.607-1.678,9.287-3.461,13.91-5.297l2.953,7.436C422.434,224.895,417.682,226.706,413.002,228.411z M132.164,226.862
			c-4.611-2.01-9.247-4.15-13.776-6.363l3.512-7.188c4.425,2.162,8.953,4.254,13.46,6.217L132.164,226.862z M1001.443,221.549
			l-0.359-0.168c-4.26-1.984-8.671-4.039-13.234-6.146l3.353-7.264c4.572,2.111,8.992,4.17,13.26,6.158l0.36,0.168L1001.443,221.549
			z M1220.318,219.633l-3.939-6.963c4.235-2.396,8.48-4.969,12.619-7.648l4.346,6.717
			C1229.073,214.502,1224.691,217.159,1220.318,219.633z M441.09,217.26l-3.157-7.352c1.558-0.668,3.119-1.348,4.685-2.037
			c3.038-1.338,6.064-2.65,9.078-3.939l3.146,7.355c-2.988,1.277-5.988,2.58-9,3.906C444.254,215.893,442.67,216.583,441.09,217.26z
			 M104.9,213.547c-4.415-2.396-8.85-4.928-13.18-7.523l4.113-6.861c4.233,2.537,8.567,5.012,12.883,7.354L104.9,213.547z
			 M974.233,209.024c-4.769-2.146-9.24-4.123-13.669-6.043l3.18-7.34c4.465,1.934,8.97,3.926,13.772,6.088L974.233,209.024z
			 M468.619,205.528l-3.025-7.406c4.639-1.896,9.348-3.773,13.995-5.58l2.898,7.457C477.883,201.79,473.217,203.649,468.619,205.528
			z M1245.88,203.1l-4.727-6.455c3.936-2.881,7.861-5.928,11.669-9.057l5.078,6.182
			C1253.979,196.993,1249.934,200.131,1245.88,203.1z M78.873,197.95c-4.209-2.771-8.414-5.666-12.501-8.605l4.671-6.494
			c3.998,2.875,8.111,5.707,12.229,8.416L78.873,197.95z M946.813,197.159c-4.657-1.924-9.316-3.797-13.847-5.568l2.91-7.451
			c4.579,1.789,9.286,3.682,13.991,5.625L946.813,197.159z M496.448,194.711l-2.767-7.506c4.725-1.74,9.498-3.451,14.187-5.084
			l2.631,7.555C505.855,191.293,501.128,192.987,496.448,194.711z M919.016,186.311c-4.703-1.719-9.433-3.391-14.059-4.965
			l2.578-7.574c4.683,1.596,9.47,3.285,14.229,5.027L919.016,186.311z M524.637,184.899l-2.488-7.604
			c4.756-1.557,9.59-3.088,14.371-4.553l2.343,7.65C534.131,181.842,529.344,183.358,524.637,184.899z M1269.388,183.797
			l-5.406-5.896c3.61-3.311,7.187-6.768,10.629-10.277l5.711,5.604C1276.779,176.836,1273.101,180.393,1269.388,183.797z
			 M54.238,180.229c-3.969-3.113-7.922-6.348-11.748-9.615l5.195-6.084c3.742,3.195,7.607,6.359,11.489,9.404L54.238,180.229z
			 M890.793,176.713c-4.754-1.49-9.556-2.93-14.271-4.279l2.201-7.691c4.779,1.367,9.646,2.826,14.464,4.338L890.793,176.713z
			 M553.17,176.168l-2.189-7.695c4.832-1.373,9.727-2.713,14.545-3.979l2.033,7.738C562.791,173.485,557.949,174.809,553.17,176.168
			z M582.021,168.602l-1.865-7.779c4.92-1.182,9.869-2.311,14.707-3.359l1.694,7.818
			C591.777,166.317,586.887,167.434,582.021,168.602z M862.151,168.52c-4.807-1.242-9.675-2.432-14.469-3.537l1.797-7.795
			c4.862,1.119,9.799,2.326,14.673,3.586L862.151,168.52z M611.162,162.282l-1.521-7.854c4.939-0.957,9.936-1.865,14.848-2.699
			l1.34,7.887C620.977,160.44,616.042,161.336,611.162,162.282z M1290.687,162.1l-5.993-5.299c3.252-3.68,6.453-7.49,9.513-11.33
			l6.256,4.986C1297.317,154.403,1294.028,158.321,1290.687,162.1z M833.126,161.834c-4.838-0.98-9.761-1.906-14.631-2.754
			l1.371-7.881c4.941,0.859,9.938,1.799,14.847,2.793L833.126,161.834z M31.151,160.51c-3.739-3.48-7.405-7.045-10.896-10.596
			l5.705-5.607c3.407,3.465,6.986,6.947,10.64,10.346L31.151,160.51z M640.551,157.292l-1.154-7.916
			c4.969-0.725,10.004-1.396,14.963-1.996l0.961,7.941C650.426,155.915,645.456,156.577,640.551,157.292z M803.794,156.731
			c-4.899-0.713-9.865-1.369-14.759-1.945l0.936-7.945c4.967,0.586,10.006,1.25,14.978,1.975L803.794,156.731z M670.133,153.713
			l-0.766-7.963c5.004-0.48,10.066-0.902,15.048-1.254l0.563,7.98C680.063,152.823,675.069,153.239,670.133,153.713z
			 M774.228,153.247c-4.899-0.439-9.894-0.82-14.844-1.131l0.499-7.984c5.022,0.314,10.091,0.701,15.062,1.148L774.228,153.247z
			 M699.85,151.618l-0.357-7.992c5.036-0.225,10.115-0.387,15.096-0.477l0.147,7.998
			C709.824,151.237,704.816,151.395,699.85,151.618z M744.513,151.391c-4.93-0.172-9.938-0.281-14.885-0.32l0.064-8
			c5.019,0.041,10.1,0.15,15.102,0.326L744.513,151.391z M9.851,138.795C3.416,131.549,0.137,127.081,0,126.893l6.458-4.721
			c0.032,0.043,3.222,4.381,9.374,11.311L9.851,138.795z M1309.635,138.331l-6.5-4.664c2.856-3.98,5.656-8.1,8.32-12.238l6.727,4.33
			C1315.445,130.01,1312.569,134.239,1309.635,138.331z M1326.085,112.764l-6.938-3.982c2.452-4.271,4.82-8.652,7.037-13.02
			l7.133,3.621C1331.039,103.872,1328.605,108.374,1326.085,112.764z"/>
	</g>
	<g>
		<path fill="#E6E6E6" d="M1325.707,61.086l8.401,23.449l1.801-18.777c0-0.01,0.009-0.014,0.009-0.023
			c0.002-0.025,0.014-0.049,0.021-0.078c0.019-0.141,0.056-0.273,0.104-0.408c0.021-0.057,0.037-0.111,0.064-0.164
			c0.024-0.059,0.055-0.111,0.088-0.166c0.017-0.029,0.037-0.055,0.059-0.084c0.057-0.08,0.102-0.164,0.164-0.236l50.53-55.049
			L1325.707,61.086z"/>
		<polygon fill="#F2F2F2" points="1296.038,48.674 1325.707,61.086 1387.07,9.459 		"/>
		<polygon fill="#CCCCCC" points="1335.679,64.807 1334.063,84.45 1347.907,69.6 		"/>
		<polygon fill="#F2F2F2" points="1335.813,64.909 1341.594,67.182 1376.107,80.702 1386.995,9.534 		"/>
	</g>
</g>
</svg>
